<?xml version="1.0" standalone="no"?><svg xmlns="http://www.w3.org/2000/svg" viewBox="0 0 1440 320"><path fill="#a2d9ff" fill-opacity="0.7" d="M0,128L24,138.7C48,149,96,171,144,160C192,149,240,107,288,85.3C336,64,384,64,432,80C480,96,528,128,576,128C624,128,672,96,720,69.3C768,43,816,21,864,21.3C912,21,960,43,1008,48C1056,53,1104,43,1152,37.3C1200,32,1248,32,1296,64C1344,96,1392,160,1416,192L1440,224L1440,0L1416,0C1392,0,1344,0,1296,0C1248,0,1200,0,1152,0C1104,0,1056,0,1008,0C960,0,912,0,864,0C816,0,768,0,720,0C672,0,624,0,576,0C528,0,480,0,432,0C384,0,336,0,288,0C240,0,192,0,144,0C96,0,48,0,24,0L0,0Z"></path></svg>